<?xml version="1.0" standalone="no"?>
<!DOCTYPE svg PUBLIC "-//W3C//DTD SVG 20010904//EN"
 "http://www.w3.org/TR/2001/REC-SVG-20010904/DTD/svg10.dtd">
<svg version="1.0" xmlns="http://www.w3.org/2000/svg"
 width="2439.000000pt" height="1501.000000pt" viewBox="0 0 2439.000000 1501.000000"
 preserveAspectRatio="xMidYMid meet">
<metadata>
Created by potrace 1.16, written by Peter Selinger 2001-2019
</metadata>
<g transform="translate(0.000000,1501.000000) scale(0.100000,-0.100000)"
fill="#000000" stroke="none">
<path d="M6200 9477 c-17 -8 -43 -48 -82 -127 -65 -132 -73 -183 -35 -217 12
-11 232 -120 490 -242 493 -235 500 -237 540 -193 24 26 127 244 127 267 -1
54 -17 63 -506 297 -264 125 -486 228 -494 228 -8 0 -26 -6 -40 -13z"/>
<path d="M17845 9364 c-215 -34 -370 -165 -429 -363 -20 -69 -21 -246 -1 -320
49 -185 186 -313 382 -357 144 -32 378 -5 521 61 l55 25 -7 46 c-3 26 -6 145
-6 265 l0 219 -200 0 -200 0 0 -110 0 -110 90 0 91 0 -3 -77 -3 -77 -50 -20
c-75 -29 -204 -27 -273 3 -152 68 -220 266 -147 429 52 116 144 172 281 172
84 0 144 -19 198 -62 l39 -31 54 59 c29 32 65 74 80 92 25 32 25 33 7 48 -47
37 -112 69 -173 86 -65 18 -246 31 -306 22z"/>
<path d="M18603 9363 l-93 -4 0 -499 0 -500 360 0 360 0 0 105 0 105 -245 0
-245 0 0 95 0 95 133 0 c72 0 169 3 215 7 l82 6 0 103 0 104 -215 0 -215 0 0
85 0 85 230 0 230 0 0 110 0 110 -252 -2 c-139 -1 -295 -4 -345 -5z"/>
<path d="M19393 9363 l-23 -4 0 -500 0 -499 115 0 115 0 0 201 0 200 51 -3 51
-3 105 -197 105 -198 139 0 c77 0 138 3 136 8 -2 4 -53 88 -114 187 -152 249
-142 220 -86 245 105 46 153 127 153 256 0 139 -41 214 -144 264 -34 17 -91
34 -131 40 -68 9 -427 12 -472 3z m440 -207 c49 -20 70 -50 70 -97 0 -78 -66
-109 -229 -109 l-74 0 0 110 0 110 100 0 c63 0 113 -5 133 -14z"/>
<path d="M9800 9188 c0 -84 3 -312 7 -505 l6 -353 114 0 113 0 0 214 0 213 61
7 c34 3 127 6 205 6 l144 0 0 -215 0 -215 115 0 115 0 0 500 0 500 -115 0
-115 0 0 -185 0 -185 -210 0 -210 0 0 185 0 185 -115 0 -115 0 0 -152z"/>
<path d="M10830 9333 c0 -4 86 -136 190 -294 l190 -286 0 -212 0 -211 115 0
115 0 0 218 0 218 178 275 c98 150 181 280 186 287 6 9 -23 12 -131 12 l-138
0 -87 -148 c-48 -81 -97 -162 -109 -181 l-20 -34 -103 179 -102 179 -142 3
c-78 1 -142 -1 -142 -5z"/>
<path d="M11950 9158 c0 -101 3 -328 7 -505 l6 -323 114 0 113 0 0 193 0 194
133 6 c174 9 252 31 311 91 26 25 50 62 59 91 20 57 22 189 5 247 -18 61 -88
133 -156 160 -53 21 -74 23 -324 26 l-268 3 0 -183z m466 -35 c45 -23 66 -70
53 -117 -19 -66 -65 -86 -201 -86 l-88 0 0 116 0 117 99 -5 c72 -4 109 -10
137 -25z"/>
<path d="M12860 8835 l0 -505 188 0 c103 0 265 3 360 7 l172 6 0 51 c0 28 -3
75 -6 104 l-7 52 -238 0 -239 0 0 95 0 95 215 0 215 0 0 105 0 105 -215 0
-215 0 0 90 0 90 230 0 230 0 0 105 0 105 -345 0 -345 0 0 -505z"/>
<path d="M13720 8836 l0 -506 115 0 115 0 0 201 0 200 53 -3 52 -3 100 -190
101 -190 138 -3 c127 -2 138 -1 132 15 -4 9 -58 101 -121 204 -63 102 -115
189 -115 191 0 3 19 13 43 22 52 19 100 65 130 120 19 35 22 57 22 146 0 122
-16 164 -86 223 -76 66 -102 70 -406 75 l-273 3 0 -505z m477 291 c40 -21 53
-44 53 -95 0 -74 -57 -102 -207 -102 l-93 0 0 111 0 112 108 -5 c73 -3 117
-10 139 -21z"/>
<path d="M14674 8838 c4 -276 8 -503 9 -504 1 0 143 1 315 4 l312 5 0 103 0
104 -198 0 -199 0 -6 137 c-4 75 -7 252 -7 395 l0 258 -117 0 -116 0 7 -502z"/>
<path d="M15460 8833 l0 -506 272 6 c149 4 311 7 360 7 l88 0 0 105 0 105
-245 0 -245 0 0 95 0 95 215 0 215 0 0 109 0 108 -215 -5 -215 -5 0 92 0 91
230 0 230 0 0 105 0 105 -345 0 -345 0 0 -507z"/>
<path d="M16320 8834 l0 -507 239 7 c266 7 313 15 431 73 125 61 220 177 249
304 15 63 13 215 -3 276 -44 165 -161 277 -343 330 -45 13 -115 17 -315 21
l-258 4 0 -508z m525 262 c116 -53 165 -129 165 -256 0 -89 -22 -146 -78 -203
-55 -57 -125 -79 -264 -85 l-118 -4 0 292 0 292 118 -4 c101 -3 125 -8 177
-32z"/>
<path d="M5215 8836 c-25 -11 -40 -34 -88 -134 -60 -128 -68 -167 -39 -201 22
-27 594 -301 628 -301 14 0 35 5 46 11 24 13 138 248 138 284 0 13 -10 35 -22
49 -22 24 -554 285 -608 299 -14 3 -39 0 -55 -7z"/>
<path d="M7996 8608 c-10 -6 -45 -67 -78 -136 -65 -137 -70 -177 -25 -207 12
-7 150 -75 306 -149 284 -136 326 -150 363 -123 9 8 42 64 72 127 57 116 69
169 44 203 -7 9 -145 80 -306 157 -293 140 -332 154 -376 128z"/>
<path d="M6664 8139 c-12 -6 -44 -59 -79 -129 -64 -130 -73 -177 -39 -209 10
-11 228 -119 483 -240 495 -236 517 -243 558 -198 30 32 123 235 123 268 0 15
-10 39 -22 52 -29 30 -946 467 -979 466 -13 0 -33 -5 -45 -10z"/>
<path d="M5335 7666 c-25 -11 -41 -35 -88 -134 -59 -125 -67 -163 -43 -198 18
-25 953 -474 988 -474 42 0 65 28 122 146 59 123 68 168 39 202 -17 20 -924
458 -968 467 -11 3 -34 -1 -50 -9z"/>
<path d="M18212 7669 c-551 -71 -922 -535 -899 -1124 21 -520 392 -942 896
-1015 52 -8 132 -11 210 -7 203 9 368 60 520 162 79 53 219 192 205 204 -14
13 -208 156 -222 165 -8 5 -40 -21 -91 -72 -138 -140 -296 -199 -501 -189
-127 7 -199 25 -307 79 -275 134 -436 455 -403 800 22 219 92 378 230 519 114
116 243 183 401 208 202 33 413 -28 551 -159 34 -33 69 -58 76 -55 17 6 210
154 218 166 17 27 -125 155 -237 214 -185 97 -416 134 -647 104z"/>
<path d="M9810 6600 l0 -1030 145 0 145 0 0 445 0 445 470 0 470 0 0 135 0
135 -470 0 -470 0 0 315 0 315 505 0 505 0 0 135 0 135 -650 0 -650 0 0 -1030z"/>
<path d="M11931 7608 c-5 -13 -206 -468 -446 -1013 -240 -544 -439 -998 -442
-1008 -5 -16 6 -17 163 -15 l168 3 101 252 100 253 481 0 482 0 103 -255 103
-255 168 0 c92 0 168 1 168 3 0 1 -197 464 -438 1027 l-439 1025 -131 3 c-130
3 -132 2 -141 -20z m312 -808 c97 -239 179 -443 183 -452 6 -17 -16 -18 -371
-18 -232 0 -375 4 -373 9 32 93 375 908 379 903 3 -4 85 -203 182 -442z"/>
<path d="M13220 6601 l0 -1031 389 0 c425 0 500 6 635 51 261 87 406 274 406
524 0 146 -53 278 -150 376 -59 59 -150 112 -213 124 -21 4 -39 10 -42 14 -2
4 24 21 59 38 165 81 256 231 256 418 -1 250 -135 416 -395 487 -75 20 -105
22 -512 26 l-433 3 0 -1030z m856 748 c115 -43 178 -143 177 -281 0 -122 -65
-212 -186 -261 -47 -19 -75 -22 -304 -25 l-253 -4 0 296 0 296 255 0 c235 0
259 -2 311 -21z m-1 -844 c172 -45 266 -160 268 -330 2 -168 -89 -281 -269
-331 -45 -13 -118 -18 -311 -21 l-253 -5 0 351 0 351 253 0 c195 0 266 -4 312
-15z"/>
<path d="M14980 6601 l0 -1031 145 0 145 0 0 450 0 451 152 -3 151 -3 254
-440 c140 -242 258 -443 262 -448 4 -4 87 -6 184 -5 l177 3 -289 465 -290 465
62 12 c266 54 454 305 433 578 -21 273 -165 444 -431 510 -60 15 -135 19 -512
22 l-443 5 0 -1031z m875 745 c77 -27 141 -78 172 -138 25 -48 28 -63 28 -158
0 -98 -2 -109 -30 -159 -34 -62 -81 -100 -164 -133 -52 -21 -74 -23 -323 -26
l-268 -3 0 321 0 321 268 -3 c224 -3 275 -7 317 -22z"/>
<path d="M16750 6600 l0 -1030 145 0 145 0 0 1030 0 1030 -145 0 -145 0 0
-1030z"/>
<path d="M4334 7016 c-11 -8 -47 -71 -78 -140 -62 -136 -66 -172 -23 -201 12
-8 150 -75 305 -150 285 -136 327 -150 364 -122 9 8 42 64 72 127 57 116 69
169 44 203 -21 27 -594 297 -631 297 -18 0 -42 -6 -53 -14z"/>
<path d="M7123 6788 c-32 -35 -123 -237 -123 -273 0 -20 8 -39 23 -53 12 -11
150 -82 306 -156 306 -146 339 -156 378 -113 30 32 123 235 123 268 0 15 -10
39 -22 52 -33 35 -590 297 -631 297 -22 0 -41 -8 -54 -22z"/>
<path d="M5802 6329 c-17 -6 -40 -44 -83 -134 -62 -131 -70 -170 -41 -203 9
-11 232 -122 494 -247 506 -240 510 -242 552 -196 8 9 41 70 71 135 61 128 64
156 22 193 -30 27 -947 463 -972 462 -11 0 -30 -4 -43 -10z"/>
</g>
</svg>
